<svg id="Layer_1" data-name="Layer 1" xmlns="http://www.w3.org/2000/svg" width="871.21" height="143.15" viewBox="0 0 871.21 143.15">
  <defs>
    <style>
      .cls-1 {
        fill: #388e29;
      }

      .cls-1, .cls-2 {
        fill-rule: evenodd;
      }

      .cls-2 {
        fill: red;
      }

      .cls-3 {
        fill: #00558e;
      }

      .cls-4 {
        fill: #fff;
      }
    </style>
  </defs>
  <title>logo-white</title>
  <g>
    <path class="cls-1" d="M170.69,29.84l1.4,4.86a0.67,0.67,0,0,1,.08.37c-0.72.85-.08,1.58,0.25,2.25,0.73,1.47,1.11,3.13,2.42,4.31a2.93,2.93,0,0,1,.56,1.91,4.89,4.89,0,0,0,1.24,3.5,5.79,5.79,0,0,1,.86,1.42,13,13,0,0,0,5.73,6.09,2.57,2.57,0,0,0-.27,1.05,1.94,1.94,0,0,0,1.26.63,15.61,15.61,0,0,0,2.68-.71c1.06-.33,2.11-0.76,3.19-1a0.89,0.89,0,0,1,1.19,1.21c-1,4.09-2.48,7.89-5.72,10.68a15.84,15.84,0,0,1-2,1.29,2.47,2.47,0,0,0-.65.42c-1.83,2.24-4.5,4-4.91,7.13a19.09,19.09,0,0,0,.35,4.94c0.27,1.94.75,3.85,1,5.79a3,3,0,0,1-1.55,3c-1.11.72-2.28,1.33-3.35,2.1-2,1.45-1.9,2.11-1.2,4a9.58,9.58,0,0,1,.46,2,1.87,1.87,0,0,1-1.24,2.19c-1.66.62-2.17,1.83-2,3.54a2.59,2.59,0,0,1-1.25,2.39,9.13,9.13,0,0,0-1.34,1.48,1.3,1.3,0,0,1-.09.17c-1.95,1.58-3.18,4.06-5.69,4.88a18.22,18.22,0,0,1-2.82.35,15.34,15.34,0,0,0-2.77.58,2.08,2.08,0,0,1-3-1.33,8.08,8.08,0,0,1-.55-2,15.06,15.06,0,0,0-1.63-4.9c-1-2.07-1.81-4.2-2.59-6.36-0.42-1.15-.54-2.4-0.9-3.58a9.94,9.94,0,0,0-.9-1.74,7.77,7.77,0,0,1,.25-8.37,4.38,4.38,0,0,0,.63-3.74c-0.47-1.63-.81-3.3-1.24-4.94a2.43,2.43,0,0,0-.48-0.84c-1-1.33-2.14-2.62-3.11-4a2,2,0,0,1-.23-1.5c0.24-.94.72-1.81,1-2.73a1.33,1.33,0,0,0-1.12-2,16.61,16.61,0,0,0-2.57-.25,1.55,1.55,0,0,1-1.62-1.11,1.79,1.79,0,0,0-2-1.39c-1.36.13-2.69,0.44-4,.64s-2.58.29-3.86,0.5a7.69,7.69,0,0,0-2.45.65c-1.11.3-1.46,0.81-2.75,0.39-1.41-1.17-2.61-3-4-4.13a3,3,0,0,1-.6-0.81C119,58,117.29,57.74,116.7,57a17.82,17.82,0,0,1-1.36-1.6,0.94,0.94,0,0,0-.42-0.44,1.89,1.89,0,0,1-1.47-1.73,5.83,5.83,0,0,1,0-4.14,7,7,0,0,0,.25-4.26,6.63,6.63,0,0,1,1.42-5.42,13.77,13.77,0,0,0,1.61-3.2,2.67,2.67,0,0,1,2.05-1.93,3.32,3.32,0,0,0,2.4-2.91,10.61,10.61,0,0,1,3.13-5.4,6.92,6.92,0,0,0,1.21-1.25,1.66,1.66,0,0,1,2.15-.77c1.89,0.74,3.34-.25,4.87-1a11.93,11.93,0,0,1,5.92-1.33c0.49,0,1-.26,1.48-0.27,1.66,0,3.31,0,5,0a0.68,0.68,0,0,1,.81.82c-0.1,1.22-.2,2.45-0.41,3.66a1.06,1.06,0,0,0,.92,1.34c1.41,0.4,2.83.75,4.26,1.06a1.2,1.2,0,0,1,1.23,1c0.21,0.94,2.3,1.94,3.12,1.55a1.06,1.06,0,0,0,.35-0.7A2.66,2.66,0,0,1,159.13,28c0.65,0.35,1.28.73,1.9,1.14a8,8,0,0,0,5.62,1C168,29.95,169.36,29.93,170.69,29.84Z"/>
    <path class="cls-1" d="M190.25,86.82c-0.1.47-.12,0.7-0.19,0.91-1.1,3.49-2.23,7-3.32,10.47-0.44,1.4-1,1.94-2.16,2s-1.74-.55-2.18-1.85a9.41,9.41,0,0,0-.3-1c-0.61-1.29-.95-2.48.36-3.64a1.94,1.94,0,0,0,.14-1.66,3.42,3.42,0,0,1,2-4.54,3.84,3.84,0,0,0,2.45-2.58,2,2,0,0,1,.35-0.58c0.85-1.2,1.28-1.19,2,.17A20,20,0,0,1,190.25,86.82Z"/>
    <path class="cls-2" d="M124.63,60.59a0.7,0.7,0,0,0,0,.46,0.37,0.37,0,0,1-.07.29,1.09,1.09,0,0,0-.1.19,0.15,0.15,0,0,0,0,.12c0.09,0.09,0,.16,0,0.24a0.08,0.08,0,0,1-.07,0,0.06,0.06,0,0,0-.1,0,0.64,0.64,0,0,0,0,.15,0.31,0.31,0,0,1-.07.17,0.13,0.13,0,0,1-.11.06,0.09,0.09,0,0,0-.1.09,1.78,1.78,0,0,0,0,.25,0.07,0.07,0,0,1,0,.08,0.25,0.25,0,0,0-.11.29,0.35,0.35,0,0,1,0,.16c0,0.16-.06.33-0.09,0.49l-0.07.37a0.15,0.15,0,0,0,0,0c0,0.07,0,.09-0.08.06a1.1,1.1,0,0,1-.44-0.21,0.17,0.17,0,0,1,0-.06,0.3,0.3,0,0,0-.11-0.14,2.27,2.27,0,0,0-.77-0.41,0.27,0.27,0,0,1-.15-0.12,0.37,0.37,0,0,0-.12-0.11,1.3,1.3,0,0,1-.35-0.28,1.42,1.42,0,0,0-.41-0.33,0.82,0.82,0,0,1-.28-0.24,0.72,0.72,0,0,0-.29-0.23,0.72,0.72,0,0,1-.17-0.13L120,61.42a1.06,1.06,0,0,1-.09-0.13l-0.06-.07a1.45,1.45,0,0,1-.28-0.36,0.2,0.2,0,0,1,0-.1,0.25,0.25,0,0,0-.15-0.23,0.07,0.07,0,0,1-.05-0.11,0.09,0.09,0,0,0,0-.05l0,0a4.82,4.82,0,0,1-.6-0.76c-0.08-.1-0.16-0.21-0.24-0.32a0.22,0.22,0,0,1,0-.1,0.21,0.21,0,0,0-.07-0.14,2.57,2.57,0,0,1-.25-0.29,0.74,0.74,0,0,0-.24-0.23s-0.1,0-.06-0.11a0,0,0,0,0,0,0,0.41,0.41,0,0,0-.17-0.14l-0.07,0c-0.13-.06-0.26-0.11-0.38-0.18a3.5,3.5,0,0,1-.33-0.25,0.07,0.07,0,0,1,0-.09l0-.07a0.16,0.16,0,0,0,0-.14,1.38,1.38,0,0,0-.54-0.56c-0.16-.12-0.33-0.22-0.5-0.33l-0.11-.08a0.15,0.15,0,0,1-.05-0.17l0-.05a0.15,0.15,0,0,0,0-.19L115.54,56a0,0,0,0,1,0-.07,0.71,0.71,0,0,0,.06-0.08,0.63,0.63,0,0,0,.18-0.24,0.1,0.1,0,0,0,.07-0.13,0,0,0,0,1,0,0,0.39,0.39,0,0,1,.22-0.18,0.64,0.64,0,0,0,.36-0.19,1.14,1.14,0,0,1,.19-0.14l0.27-.14a2,2,0,0,1,.22-0.07,0.41,0.41,0,0,0,.13-0.06l0.3-.26a0.74,0.74,0,0,1,.33-0.18,0.08,0.08,0,0,0,.07-0.07c0-.15.06-0.31,0.08-0.46a0.18,0.18,0,0,1,.12-0.16,0.24,0.24,0,0,0,.09-0.08,0.2,0.2,0,0,1,.22-0.08l0.14,0,0.16,0a0.11,0.11,0,0,0,.08-0.12,0.67,0.67,0,0,1,.05-0.21l0.16-.37a0.08,0.08,0,0,1,.11-0.06,0.19,0.19,0,0,0,.12,0,0.24,0.24,0,0,1,.27.07,0.13,0.13,0,0,1,0,.1c0,0.08,0,.12.1,0.09l0.13-.06a0.29,0.29,0,0,1,.22,0h0.08a0.12,0.12,0,0,0,.14-0.05l0.08-.06a0.66,0.66,0,0,1,0,.1s0,0.08,0,.12a0.05,0.05,0,0,0,0,0h0a0.08,0.08,0,0,1,.13,0,0.09,0.09,0,0,1,0,.13,0.31,0.31,0,0,0,0,.07,0.13,0.13,0,0,0,.07,0,0.19,0.19,0,0,1,.18.07l0,0c0.07,0.06.07,0.05,0,.13a0.11,0.11,0,0,0,0,.08,0.15,0.15,0,0,1,0,.12c-0.06.1-.05,0.11,0,0.2a0.14,0.14,0,0,1,0,.08c0,0.05,0,.11,0,0.16a0.15,0.15,0,0,0,0,.09,0.09,0.09,0,0,1,0,.14,0.38,0.38,0,0,0-.07.25,1.13,1.13,0,0,0,0,.2,0.46,0.46,0,0,0,0,.11,0.19,0.19,0,0,1,0,.21,0.39,0.39,0,0,0,0,.13,0.4,0.4,0,0,1,0,.1c-0.05.09-.11,0.19-0.17,0.28a0.83,0.83,0,0,1-.11.1,0.21,0.21,0,0,0,0,.06l0,0h0c0,0.07.1,0,.16,0a0.09,0.09,0,0,1,.13.05,0.12,0.12,0,0,0,.13.08,0.07,0.07,0,0,1,.08.07,0.41,0.41,0,0,1,0,.08,0.24,0.24,0,0,0,.08.17,0.53,0.53,0,0,1,.1.15,0.06,0.06,0,0,0,.08,0l0.32-.08a0.08,0.08,0,0,1,.06,0,0.12,0.12,0,0,0,.15,0,0.09,0.09,0,0,0,0-.11A0.17,0.17,0,0,1,122,56l0,0,0.26-.23a0.16,0.16,0,0,0,0-.1,0.42,0.42,0,0,1,.11-0.27,0.14,0.14,0,0,1,.17,0h0c0.11,0,.1,0,0.11.15a0.25,0.25,0,0,0,.05.13,0.79,0.79,0,0,0,.14.14,0.24,0.24,0,0,1,.09.16c0,0.11,0,.21,0,0.32a2.09,2.09,0,0,0,0,.24c0,0.14.06,0.28,0.08,0.42a1.32,1.32,0,0,1,0,.27,0.14,0.14,0,0,1,0,.09,0.33,0.33,0,0,0-.11.27,0.33,0.33,0,0,1-.11.26c-0.15.12-.31,0.23-0.47,0.35l-0.24.15s0,0,0,.06a0.23,0.23,0,0,1,.13.13c0,0.06.06,0.06,0.1,0s0-.06.08,0a0.13,0.13,0,0,1,.08.13s0,0.09,0,.14a0,0,0,0,0,0,.06,0.29,0.29,0,0,1,.22.13,0.24,0.24,0,0,0,.09.07L123.08,59a0.32,0.32,0,0,0,.14,0,0.43,0.43,0,0,1,.29,0l0.07,0a0.43,0.43,0,0,1,.23.2,0.16,0.16,0,0,1,0,.17l0,0.08c0,0.08,0,.09,0,0.13a0.16,0.16,0,0,1,.05.19,0.11,0.11,0,0,0,0,.14L124,60.11c0,0.05.07,0.09,0.14,0h0l0.14,0.12a0.15,0.15,0,0,1,0,.06,0.1,0.1,0,0,0,.09.08,0.37,0.37,0,0,1,.07.06,0.07,0.07,0,0,0,.06,0s0-.05.07,0a0.19,0.19,0,0,1,0,.09A0.14,0.14,0,0,1,124.63,60.59Z"/>
    <g>
      <path class="cls-3" d="M76,15.4A13.5,13.5,0,0,1,61.1,27.54,13.72,13.72,0,0,1,49.33,12.23,13.5,13.5,0,0,1,64.19.09,13.72,13.72,0,0,1,76,15.4Z"/>
      <path class="cls-3" d="M160.1,120.89C154.87,118.45,127,98.57,127,98.57a141,141,0,0,1-12.12-10.29,109.32,109.32,0,0,1-13.2-15.44C84.41,47,96.09,28.89,96.09,28.89c6.53-11.62,24.4-16.12,38.08-13.44a101.88,101.88,0,0,1,22.11,9.48l-0.06-.18s-8.54-10.28-13.62-12.67c-31.47-14.82-53.91,7.19-53.91,7.19C49.4,54.72,0,9,0,9,9.9,28.58,45,49.09,45,49.09c12.4,7.15,15.46,13.18,15.46,13.18,8.38,9.62,13.94,28.65,13.94,28.65,13.25,42.53,38.56,52.22,38.56,52.22-9-9.92-17.42-39.91-17.89-44.22-0.43-3.87.79-4.9,1.94-5.06,0.28,0,1.31,0,3.07,1.35,17.6,14.16,45.65,22.13,56,24.73"/>
    </g>
    <g>
      <path class="cls-3" d="M239.38,15.4a13.5,13.5,0,0,0,14.86,12.13A13.72,13.72,0,0,0,266,12.23,13.5,13.5,0,0,0,251.15.09,13.73,13.73,0,0,0,239.38,15.4Z"/>
      <path class="cls-3" d="M158.66,120.89c5.23-2.44,33.13-22.32,33.13-22.32a141.25,141.25,0,0,0,12.12-10.29,109.47,109.47,0,0,0,13.2-15.44c17.25-25.84,5.57-43.93,5.57-43.93-6.54-11.62-24.4-16.12-38.08-13.44a101.91,101.91,0,0,0-22.11,9.48l0.06-.18s8.54-10.28,13.61-12.67c31.47-14.82,53.91,7.19,53.91,7.19,39.29,35.45,88.69-12.57,88.69-12.57-9.9,19.55-45,42.4-45,42.4-12.39,7.15-15.45,13.18-15.45,13.18-8.38,9.62-13.94,28.65-13.94,28.65-13.25,42.53-38.56,52.22-38.56,52.22,9-9.92,17.42-39.91,17.9-44.22,0.42-3.87-.79-4.9-1.94-5.06-0.27,0-1.31,0-3.07,1.35-17.6,14.16-45.65,22.13-56,24.73"/>
    </g>
  </g>
  <g>
    <path class="cls-4" d="M466.73,43.41V43.35a11.09,11.09,0,0,1,11.37-11.28,11.25,11.25,0,0,1,8.6,3.36L483.65,39a8,8,0,0,0-5.58-2.46c-3.68,0-6.33,3.05-6.33,6.79v0.06c0,3.74,2.59,6.85,6.33,6.85,2.49,0,4-1,5.73-2.55l3.05,3.08a11.15,11.15,0,0,1-8.94,3.9A11,11,0,0,1,466.73,43.41Z"/>
    <path class="cls-4" d="M502.81,44.9V32.44h4.8V44.78c0,3.55,1.78,5.39,4.71,5.39s4.7-1.78,4.7-5.23V32.44h4.8V44.75c0,6.61-3.71,9.85-9.57,9.85S502.81,51.32,502.81,44.9Z"/>
    <path class="cls-4" d="M539.17,32.44h5.17l5.73,9.22,5.73-9.22H561V54.25h-4.77V40l-6.14,9.32h-0.12l-6.08-9.22V54.25h-4.71V32.44Z"/>
    <path class="cls-4" d="M578.67,32.44h5.17l5.73,9.22,5.73-9.22h5.17V54.25h-4.77V40l-6.14,9.32h-0.12l-6.08-9.22V54.25h-4.71V32.44Z"/>
    <path class="cls-4" d="M618.39,32.44h4.8V54.25h-4.8V32.44Z"/>
    <path class="cls-4" d="M641.1,32.44h4.42l10.22,13.43V32.44h4.74V54.25H656.4L645.84,40.39V54.25H641.1V32.44Z"/>
    <path class="cls-4" d="M677.21,43.41V43.35a11.19,11.19,0,0,1,11.44-11.28,12,12,0,0,1,8.57,3l-3,3.65a8,8,0,0,0-5.7-2.21,6.55,6.55,0,0,0-6.26,6.79v0.06c0,4,2.74,6.92,6.61,6.92A7.65,7.65,0,0,0,693.35,49V45.84h-4.83V41.7H698v9.47a14.16,14.16,0,0,1-9.32,3.46C681.88,54.63,677.21,49.86,677.21,43.41Z"/>
    <path class="cls-4" d="M713.57,51.07l2.83-3.4a10,10,0,0,0,6.51,2.65c2,0,3.15-.78,3.15-2.06V48.21c0-1.21-.75-1.84-4.39-2.77-4.39-1.12-7.23-2.34-7.23-6.67V38.7c0-4,3.18-6.57,7.63-6.57a12.63,12.63,0,0,1,8.1,2.77l-2.49,3.61A10.23,10.23,0,0,0,722,36.37c-1.84,0-2.8.84-2.8,1.9v0.06c0,1.43.93,1.9,4.71,2.87,4.42,1.15,6.92,2.74,6.92,6.54V47.8c0,4.33-3.3,6.76-8,6.76A13.88,13.88,0,0,1,713.57,51.07Z"/>
    <path class="cls-4" d="M348.61,81.21h2.15L360,101h-2.47l-2.39-5.19H344.1L341.68,101h-2.36Zm5.68,12.59-4.63-10L345,93.8h9.29Z"/>
    <path class="cls-4" d="M376,81.35h14.64v2H378.3v7h11v2h-11V101H376V81.35Z"/>
    <path class="cls-4" d="M407,81.35h8.76a8.22,8.22,0,0,1,5.79,2,5.32,5.32,0,0,1,1.57,3.87v0.06c0,3.25-2.33,5.16-5.53,5.72l6.26,8h-2.82l-5.91-7.63h-5.82V101H407V81.35Zm8.56,10c3.06,0,5.24-1.51,5.24-4V87.27c0-2.41-1.92-3.87-5.21-3.87h-6.29v8h6.26Z"/>
    <path class="cls-4" d="M440.2,81.35h2.3V101h-2.3V81.35Z"/>
    <path class="cls-4" d="M459.5,91.22V91.17A10.07,10.07,0,0,1,469.81,81a10.81,10.81,0,0,1,7.95,3.11l-1.57,1.63a9,9,0,0,0-6.41-2.69,7.83,7.83,0,0,0-7.89,8v0.06a7.88,7.88,0,0,0,7.89,8.11,9,9,0,0,0,6.58-2.83l1.51,1.43a10.79,10.79,0,0,1-8.15,3.45A10,10,0,0,1,459.5,91.22Z"/>
    <path class="cls-4" d="M501.36,81.21h2.15L512.8,101h-2.47l-2.39-5.19H496.85L494.43,101h-2.36ZM507,93.8l-4.63-10-4.66,10H507Z"/>
    <path class="cls-4" d="M549.41,81.35h14.64v2H551.71v7h11v2h-11V101h-2.3V81.35Z"/>
    <path class="cls-4" d="M579.1,91.22V91.17a10.4,10.4,0,0,1,20.79-.06v0.06A10.4,10.4,0,0,1,579.1,91.22Zm18.4,0V91.17a7.94,7.94,0,0,0-8-8.1,7.85,7.85,0,0,0-8,8v0.06a7.94,7.94,0,0,0,8,8.11A7.85,7.85,0,0,0,597.5,91.22Z"/>
    <path class="cls-4" d="M616.36,92.76V81.35h2.3V92.62c0,4.23,2.33,6.62,6.23,6.62S631,97.06,631,92.76V81.35h2.3V92.6c0,5.72-3.41,8.69-8.5,8.69S616.36,98.32,616.36,92.76Z"/>
    <path class="cls-4" d="M650.7,81.35h2.16L665.7,97.08V81.35h2.24V101H666.1l-13.16-16.1V101H650.7V81.35Z"/>
    <path class="cls-4" d="M685.63,81.35h7.08c6.41,0,10.83,4.23,10.83,9.76v0.06c0,5.53-4.42,9.82-10.83,9.82h-7.08V81.35Zm7.08,17.58c5.15,0,8.44-3.37,8.44-7.71V91.17c0-4.35-3.29-7.77-8.44-7.77h-4.77V98.93h4.77Z"/>
    <path class="cls-4" d="M726.53,81.21h2.15L738,101h-2.47l-2.39-5.19H722L719.6,101h-2.36ZM732.2,93.8l-4.63-10-4.66,10h9.29Z"/>
    <path class="cls-4" d="M756.68,83.4h-6.84v-2h16v2H759V101h-2.33V83.4Z"/>
    <path class="cls-4" d="M782.29,81.35h2.3V101h-2.3V81.35Z"/>
    <path class="cls-4" d="M801.59,91.22V91.17a10.4,10.4,0,0,1,20.79-.06v0.06A10.4,10.4,0,0,1,801.59,91.22Zm18.4,0V91.17a7.94,7.94,0,0,0-8-8.1,7.85,7.85,0,0,0-8,8v0.06a7.94,7.94,0,0,0,8,8.11A7.85,7.85,0,0,0,820,91.22Z"/>
    <path class="cls-4" d="M839.17,81.35h2.16l12.84,15.73V81.35h2.24V101h-1.83l-13.16-16.1V101h-2.24V81.35Z"/>
  </g>
</svg>
